<?xml version="1.0" encoding="utf-8"?>
<!-- Generator: Adobe Illustrator 25.4.1, SVG Export Plug-In . SVG Version: 6.00 Build 0)  -->
<svg version="1.1" id="Layer_1" xmlns="http://www.w3.org/2000/svg" xmlns:xlink="http://www.w3.org/1999/xlink" x="0px" y="0px"
	 viewBox="0 0 35.67 15.4" style="enable-background:new 0 0 35.67 15.4;" xml:space="preserve">
<path d="M19.47,1.05v0.35c-0.51,0-0.9,0.16-1.17,0.48c-0.27,0.32-0.49,0.75-0.68,1.29l-3.96,11.58h-0.41l-3.04-8.56l-3.02,8.56H6.8
	L2.86,3.62C2.73,3.23,2.6,2.86,2.48,2.52C2.35,2.19,2.16,1.91,1.92,1.71C1.68,1.5,1.31,1.39,0.82,1.39V1.05h4.93v0.35
	c-0.27,0-0.55,0.04-0.84,0.12C4.62,1.6,4.48,1.83,4.48,2.19c0,0.2,0.05,0.47,0.16,0.8c0.11,0.33,0.2,0.59,0.26,0.78l2.62,7.53
	l2.23-6.39C9.59,4.35,9.41,3.8,9.21,3.26C9,2.72,8.74,2.28,8.42,1.92C8.1,1.57,7.69,1.39,7.18,1.39V1.05h5.22v0.35
	c-0.22,0-0.44,0.01-0.65,0.04c-0.22,0.03-0.4,0.1-0.55,0.22c-0.15,0.12-0.22,0.33-0.22,0.62c0,0.27,0.05,0.57,0.15,0.9
	c0.1,0.33,0.19,0.61,0.28,0.84l2.57,7.29l2.55-7.4c0.07-0.2,0.16-0.47,0.25-0.8c0.09-0.33,0.14-0.6,0.14-0.8
	c0-0.39-0.16-0.63-0.48-0.74c-0.32-0.11-0.64-0.16-0.95-0.16V1.05H19.47z"/>
<path d="M22.75,3.98c0,0.39-0.13,0.71-0.4,0.98c-0.26,0.27-0.59,0.4-0.96,0.4c-0.39,0-0.71-0.13-0.98-0.4
	C20.13,4.69,20,4.37,20,3.98c0-0.4,0.13-0.73,0.4-1c0.27-0.27,0.6-0.4,0.98-0.4c0.38,0,0.7,0.13,0.96,0.4
	C22.61,3.25,22.75,3.58,22.75,3.98z M22.75,11.46c0,0.37-0.13,0.69-0.4,0.95c-0.26,0.27-0.59,0.4-0.96,0.4
	c-0.39,0-0.71-0.13-0.98-0.4c-0.27-0.26-0.4-0.58-0.4-0.95c0-0.39,0.13-0.71,0.4-0.99c0.27-0.27,0.6-0.41,0.98-0.41
	c0.38,0,0.7,0.14,0.96,0.41C22.61,10.75,22.75,11.08,22.75,11.46z"/>
<path d="M34.82,10.76l-1.15,3.65H23.28v-0.38c0.63,0,1.11-0.1,1.44-0.29c0.34-0.2,0.51-0.65,0.51-1.36V3.09
	c0-0.71-0.17-1.16-0.51-1.36c-0.34-0.2-0.82-0.31-1.44-0.31V1.05h5.81v0.37c-0.64,0-1.13,0.1-1.47,0.31s-0.51,0.66-0.51,1.36v8.8
	c0,0.66,0.12,1.11,0.35,1.33c0.23,0.23,0.68,0.34,1.34,0.34h1.34c0.86,0,1.54-0.07,2.05-0.22c0.51-0.15,0.93-0.42,1.27-0.83
	c0.34-0.41,0.68-1.01,1.02-1.8L34.82,10.76z"/>
</svg>
