<?xml version="1.0" encoding="utf-8"?>
<!-- Generator: Adobe Illustrator 25.4.1, SVG Export Plug-In . SVG Version: 6.00 Build 0)  -->
<svg version="1.1" id="Layer_1" xmlns="http://www.w3.org/2000/svg" xmlns:xlink="http://www.w3.org/1999/xlink" x="0px" y="0px"
	 viewBox="0 0 35.7 15.4" style="enable-background:new 0 0 35.7 15.4;" xml:space="preserve">
<style type="text/css">
	.st0{fill:#515151;}
</style>
<path class="st0" d="M19.5,1v0.4c-0.5,0-0.9,0.2-1.2,0.5s-0.5,0.8-0.7,1.3l-4,11.6h-0.4l-3-8.6l-3,8.6H6.8L2.9,3.6
	C2.7,3.2,2.6,2.9,2.5,2.5C2.3,2.2,2.2,1.9,1.9,1.7C1.7,1.5,1.3,1.4,0.8,1.4V1h4.9v0.4c-0.3,0-0.6,0-0.8,0.1S4.5,1.8,4.5,2.2
	c0,0.2,0.1,0.5,0.2,0.8c0.1,0.3,0.2,0.6,0.3,0.8l2.6,7.5l2.2-6.4C9.6,4.3,9.4,3.8,9.2,3.3C9,2.7,8.7,2.3,8.4,1.9
	C8.1,1.6,7.7,1.4,7.2,1.4V1h5.2v0.4c-0.2,0-0.4,0-0.6,0c-0.2,0-0.4,0.1-0.6,0.2C11.1,1.8,11,2,11,2.3c0,0.3,0.1,0.6,0.1,0.9
	c0.1,0.3,0.2,0.6,0.3,0.8l2.6,7.3l2.6-7.4c0.1-0.2,0.2-0.5,0.2-0.8s0.1-0.6,0.1-0.8c0-0.4-0.2-0.6-0.5-0.7s-0.6-0.2-0.9-0.2V1H19.5z
	"/>
<path class="st0" d="M22.8,4c0,0.4-0.1,0.7-0.4,1c-0.3,0.3-0.6,0.4-1,0.4c-0.4,0-0.7-0.1-1-0.4C20.1,4.7,20,4.4,20,4
	c0-0.4,0.1-0.7,0.4-1s0.6-0.4,1-0.4s0.7,0.1,1,0.4C22.6,3.2,22.8,3.6,22.8,4z M22.8,11.5c0,0.4-0.1,0.7-0.4,0.9
	c-0.3,0.3-0.6,0.4-1,0.4c-0.4,0-0.7-0.1-1-0.4c-0.3-0.3-0.4-0.6-0.4-0.9c0-0.4,0.1-0.7,0.4-1c0.3-0.3,0.6-0.4,1-0.4s0.7,0.1,1,0.4
	C22.6,10.8,22.8,11.1,22.8,11.5z"/>
<path class="st0" d="M34.8,10.8l-1.2,3.6H23.3V14c0.6,0,1.1-0.1,1.4-0.3c0.3-0.2,0.5-0.6,0.5-1.4V3.1c0-0.7-0.2-1.2-0.5-1.4
	s-0.8-0.3-1.4-0.3V1h5.8v0.4c-0.6,0-1.1,0.1-1.5,0.3s-0.5,0.7-0.5,1.4v8.8c0,0.7,0.1,1.1,0.4,1.3c0.2,0.2,0.7,0.3,1.3,0.3h1.3
	c0.9,0,1.5-0.1,2.1-0.2c0.5-0.1,0.9-0.4,1.3-0.8s0.7-1,1-1.8L34.8,10.8z"/>
</svg>
