<?xml version="1.0" encoding="utf-8"?>
<!-- Generator: Adobe Illustrator 25.4.1, SVG Export Plug-In . SVG Version: 6.00 Build 0)  -->
<svg version="1.1" id="Layer_1" xmlns="http://www.w3.org/2000/svg" xmlns:xlink="http://www.w3.org/1999/xlink" x="0px" y="0px"
	 viewBox="0 0 104.8 15.4" style="enable-background:new 0 0 104.8 15.4;" xml:space="preserve">
<style type="text/css">
	.st0{fill:#4F4F4F;}
</style>
<path class="st0" d="M19.5,1v0.4c-0.5,0-0.9,0.2-1.2,0.5s-0.5,0.8-0.7,1.3l-4,11.6h-0.4l-3-8.6l-3,8.6H6.8L2.9,3.6
	C2.7,3.2,2.6,2.9,2.5,2.5C2.3,2.2,2.2,1.9,1.9,1.7C1.7,1.5,1.3,1.4,0.8,1.4V1h4.9v0.4c-0.3,0-0.6,0-0.8,0.1S4.5,1.8,4.5,2.2
	c0,0.2,0.1,0.5,0.2,0.8c0.1,0.3,0.2,0.6,0.3,0.8l2.6,7.5l2.2-6.4C9.6,4.3,9.4,3.8,9.2,3.3C9,2.7,8.7,2.3,8.4,1.9
	C8.1,1.6,7.7,1.4,7.2,1.4V1h5.2v0.4c-0.2,0-0.4,0-0.6,0c-0.2,0-0.4,0.1-0.6,0.2C11.1,1.8,11,2,11,2.3c0,0.3,0.1,0.6,0.1,0.9
	c0.1,0.3,0.2,0.6,0.3,0.8l2.6,7.3l2.6-7.4c0.1-0.2,0.2-0.5,0.2-0.8s0.1-0.6,0.1-0.8c0-0.4-0.2-0.6-0.5-0.7s-0.6-0.2-0.9-0.2V1H19.5z
	"/>
<path class="st0" d="M27.1,9.7c0,0.9-0.2,1.7-0.5,2.4c-0.4,0.8-0.9,1.4-1.5,1.8s-1.5,0.7-2.4,0.7c-0.9,0-1.6-0.2-2.3-0.7
	c-0.6-0.4-1.1-1-1.5-1.8s-0.5-1.5-0.5-2.3c0-0.8,0.2-1.6,0.5-2.4s0.9-1.3,1.5-1.8s1.4-0.7,2.3-0.7c0.9,0,1.6,0.2,2.3,0.6
	s1.2,1,1.5,1.7C26.9,8.1,27.1,8.9,27.1,9.7z M25.2,10.5c0-0.4,0-0.9-0.1-1.5S24.9,8,24.6,7.5c-0.2-0.5-0.5-0.9-0.9-1.2
	c-0.4-0.3-0.8-0.5-1.4-0.5c-0.6,0-1,0.2-1.4,0.6c-0.3,0.4-0.5,0.8-0.6,1.3c-0.1,0.5-0.2,1-0.2,1.5c0,0.4,0,0.9,0.1,1.5
	c0.1,0.6,0.2,1.1,0.5,1.6c0.2,0.5,0.5,0.9,0.9,1.3C22,13.8,22.5,14,23,14c0.6,0,1.1-0.2,1.4-0.6c0.3-0.4,0.5-0.8,0.6-1.4
	S25.2,11,25.2,10.5z"/>
<path class="st0" d="M35.6,6.2c0,0.2-0.1,0.4-0.3,0.6C35.2,7,35,7.1,34.7,7.1c-0.2,0-0.4-0.1-0.6-0.2c-0.2-0.1-0.3-0.2-0.4-0.3
	c-0.1-0.1-0.3-0.2-0.4-0.2c-0.2,0-0.4,0.2-0.6,0.4C32.4,7.2,32.2,7.5,32,8v4.4c0,0.6,0.1,1,0.3,1.3s0.6,0.4,1.2,0.4v0.4h-4.7v-0.4
	c0.5,0,0.8-0.1,1-0.1c0.2-0.1,0.3-0.3,0.4-0.5s0.1-0.6,0.1-1V8.5c0-0.6,0-1.1-0.1-1.5s-0.3-0.6-0.7-0.6c-0.2,0-0.4,0-0.6,0.1
	l-0.1-0.3l2.8-1.1H32v2c0.2-0.3,0.3-0.6,0.6-0.9c0.2-0.3,0.5-0.6,0.8-0.8c0.3-0.2,0.6-0.3,1-0.3c0.3,0,0.6,0.1,0.9,0.3
	C35.5,5.6,35.6,5.9,35.6,6.2z"/>
<path class="st0" d="M46.8,13.6l-2.7,1.1h-0.4v-1.3c-0.4,0.4-0.8,0.7-1.2,0.9c-0.4,0.2-0.9,0.4-1.4,0.4c-0.8,0-1.5-0.2-2-0.7
	c-0.5-0.4-1-1-1.3-1.7c-0.3-0.7-0.4-1.4-0.4-2.1c0-0.6,0.1-1.2,0.3-1.9s0.5-1.2,0.9-1.7c0.4-0.5,0.8-0.9,1.4-1.2
	c0.5-0.3,1.2-0.4,1.8-0.4c0.4,0,0.7,0.1,1,0.2c0.3,0.1,0.6,0.3,0.9,0.6V2.9c0-0.4,0-0.7-0.2-0.9S43.2,1.7,43,1.7c-0.1,0-0.2,0-0.3,0
	s-0.2,0.1-0.3,0.1l-0.1-0.3l2.8-1.1h0.4v11.2c0,0.5,0,0.9,0.1,1.2c0.1,0.3,0.3,0.5,0.6,0.5c0.1,0,0.2,0,0.3-0.1s0.2-0.1,0.3-0.1
	L46.8,13.6z M43.7,12.7V8.1c0-0.4-0.1-0.8-0.3-1.1S43,6.3,42.7,6.1c-0.3-0.2-0.7-0.4-1.1-0.4c-0.5,0-0.9,0.1-1.2,0.4
	c-0.3,0.2-0.6,0.6-0.8,0.9c-0.2,0.4-0.3,0.8-0.4,1.2s-0.1,0.8-0.1,1.2c0,0.4,0,0.9,0.1,1.3c0.1,0.5,0.2,0.9,0.5,1.4s0.5,0.8,0.9,1
	c0.3,0.3,0.8,0.4,1.3,0.4c0.4,0,0.7-0.1,1-0.3C43.2,13.2,43.5,13,43.7,12.7z"/>
<path class="st0" d="M51.9,3.7c0,0.4-0.1,0.7-0.4,1c-0.3,0.3-0.6,0.4-1,0.4c-0.4,0-0.7-0.1-1-0.4s-0.4-0.6-0.4-1
	c0-0.4,0.1-0.7,0.4-1s0.6-0.4,1-0.4s0.7,0.1,1,0.4C51.8,3,51.9,3.3,51.9,3.7z M51.9,11.2c0,0.4-0.1,0.7-0.4,0.9
	c-0.3,0.3-0.6,0.4-1,0.4c-0.4,0-0.7-0.1-1-0.4c-0.3-0.3-0.4-0.6-0.4-0.9c0-0.4,0.1-0.7,0.4-1c0.3-0.3,0.6-0.4,1-0.4s0.7,0.1,1,0.4
	C51.8,10.5,51.9,10.8,51.9,11.2z"/>
<path class="st0" d="M65.8,10.8l-1.2,3.6H54.3V14c0.6,0,1.1-0.1,1.4-0.3c0.3-0.2,0.5-0.6,0.5-1.4V3.1c0-0.7-0.2-1.2-0.5-1.4
	s-0.8-0.3-1.4-0.3V1h5.8v0.4c-0.6,0-1.1,0.1-1.5,0.3s-0.5,0.7-0.5,1.4v8.8c0,0.7,0.1,1.1,0.3,1.3c0.2,0.2,0.7,0.3,1.3,0.3h1.3
	c0.9,0,1.5-0.1,2-0.2c0.5-0.1,0.9-0.4,1.3-0.8c0.3-0.4,0.7-1,1-1.8L65.8,10.8z"/>
<path class="st0" d="M74.3,10.9l0.3,0.2c-0.1,0.6-0.3,1.2-0.6,1.8c-0.3,0.6-0.8,1-1.3,1.3c-0.5,0.3-1.1,0.5-1.8,0.5
	c-0.9,0-1.6-0.2-2.2-0.7c-0.6-0.5-1-1.1-1.3-1.8S67,10.8,67,10c0-0.9,0.2-1.7,0.5-2.4s0.8-1.3,1.4-1.8s1.4-0.7,2.3-0.7
	c1.1,0,1.9,0.3,2.6,1s0.9,1.6,0.9,2.6h-6.2c0,0.6,0.1,1.3,0.3,2c0.2,0.7,0.6,1.2,1.1,1.7c0.5,0.4,1.1,0.7,1.9,0.7
	c0.7,0,1.2-0.2,1.7-0.6C73.8,12,74.1,11.5,74.3,10.9z M68.4,8.2h4.2c0-0.4-0.1-0.8-0.2-1.2c-0.1-0.4-0.4-0.7-0.6-0.9
	c-0.3-0.2-0.7-0.3-1.1-0.3c-0.7,0-1.2,0.2-1.6,0.7S68.4,7.6,68.4,8.2z"/>
<path class="st0" d="M85.2,12.5v0.6c-0.2,0.3-0.6,0.7-0.9,1c-0.4,0.3-0.8,0.5-1.2,0.5c-0.4,0-0.7-0.2-0.8-0.5s-0.2-0.7-0.2-1
	c-0.4,0.4-0.9,0.7-1.3,1c-0.4,0.3-1,0.5-1.6,0.5c-0.7,0-1.2-0.2-1.6-0.7c-0.4-0.4-0.6-1-0.6-1.7c0-0.6,0.2-1,0.5-1.4
	c0.4-0.4,0.8-0.8,1.3-1.1s1.1-0.6,1.7-0.8s1.1-0.4,1.5-0.5V8.1c0-0.4,0-0.8-0.1-1.2S81.6,6.3,81.4,6s-0.6-0.3-1.1-0.3
	c-0.6,0-1,0.2-1.1,0.5c-0.2,0.3-0.2,0.7-0.2,1.2c0,0.3-0.1,0.5-0.2,0.7c-0.1,0.2-0.3,0.2-0.7,0.2c-0.3,0-0.5-0.1-0.6-0.3
	s-0.2-0.4-0.2-0.7c0-0.6,0.2-1,0.6-1.3c0.4-0.3,0.8-0.6,1.3-0.7c0.5-0.2,1-0.2,1.4-0.2c1.1,0,1.9,0.2,2.4,0.7s0.7,1.3,0.7,2.4v3.1
	c0,0.2,0,0.5,0,0.9c0,0.3,0,0.6,0.1,0.7c0,0.1,0.1,0.2,0.1,0.3s0.2,0.1,0.3,0.1c0.1,0,0.2-0.1,0.4-0.2s0.3-0.2,0.4-0.4
	C85,12.7,85.1,12.6,85.2,12.5z M82,12.4V9c-0.4,0.2-0.9,0.4-1.5,0.6s-1,0.6-1.4,0.9s-0.6,0.8-0.6,1.3c0,0.4,0.1,0.8,0.4,1.1
	c0.2,0.4,0.6,0.5,1,0.5c0.3,0,0.7-0.1,1-0.3C81.4,12.9,81.7,12.7,82,12.4z"/>
<path class="st0" d="M93.1,6.2c0,0.2-0.1,0.4-0.3,0.6c-0.2,0.2-0.4,0.3-0.6,0.3c-0.2,0-0.4-0.1-0.6-0.2c-0.2-0.1-0.3-0.2-0.4-0.3
	s-0.3-0.2-0.4-0.2c-0.2,0-0.4,0.2-0.6,0.4S89.7,7.5,89.4,8v4.4c0,0.6,0.1,1,0.3,1.3s0.6,0.4,1.2,0.4v0.4h-4.7v-0.4
	c0.4,0,0.8-0.1,1-0.1c0.2-0.1,0.3-0.3,0.4-0.5c0.1-0.2,0.1-0.6,0.1-1V8.5c0-0.6,0-1.1-0.1-1.5S87.4,6.5,87,6.5c-0.2,0-0.4,0-0.6,0.1
	l-0.1-0.3L89,5.1h0.4v2c0.2-0.3,0.3-0.6,0.6-0.9c0.2-0.3,0.5-0.6,0.8-0.8c0.3-0.2,0.6-0.3,1-0.3c0.3,0,0.6,0.1,0.9,0.3
	C92.9,5.6,93.1,5.9,93.1,6.2z"/>
<path class="st0" d="M104.2,14.4h-4.5V14c0.5,0,0.8-0.1,1-0.1s0.3-0.3,0.4-0.5c0.1-0.2,0.1-0.6,0.1-1V8.7c0-0.3,0-0.7-0.1-1.1
	c-0.1-0.4-0.2-0.7-0.4-0.9s-0.5-0.4-1-0.4c-0.5,0-0.9,0.1-1.3,0.4c-0.4,0.3-0.7,0.6-1,0.9v4.8c0,0.4,0,0.8,0.1,1
	c0.1,0.2,0.2,0.4,0.4,0.5c0.2,0.1,0.5,0.1,1,0.1v0.4h-4.5V14c0.4,0,0.8-0.1,0.9-0.2s0.3-0.3,0.3-0.6c0.1-0.2,0.1-0.6,0.1-0.9V8.2
	c0-0.4,0-0.9-0.1-1.2c-0.1-0.4-0.3-0.6-0.6-0.6c-0.1,0-0.2,0-0.3,0.1c-0.1,0-0.2,0.1-0.3,0.1l-0.1-0.3L97,5.1h0.4V7
	c0.4-0.4,0.8-0.9,1.3-1.3s1.1-0.6,1.7-0.6c0.7,0,1.2,0.2,1.5,0.5s0.6,0.8,0.7,1.3s0.2,1.1,0.2,1.6v3.9c0,0.6,0.1,1,0.2,1.3
	c0.2,0.3,0.6,0.4,1.2,0.4L104.2,14.4L104.2,14.4z"/>
</svg>
