<?xml version="1.0" encoding="utf-8"?>
<!-- Generator: Adobe Illustrator 25.4.1, SVG Export Plug-In . SVG Version: 6.00 Build 0)  -->
<svg version="1.1" id="Layer_1" xmlns="http://www.w3.org/2000/svg" xmlns:xlink="http://www.w3.org/1999/xlink" x="0px" y="0px"
	 viewBox="0 0 104.83 15.4" style="enable-background:new 0 0 104.83 15.4;" xml:space="preserve">
<style type="text/css">
	.st0{fill:#FFFFFF;}
</style>
<path class="st0" d="M19.47,1.05v0.35c-0.51,0-0.9,0.16-1.17,0.48c-0.27,0.32-0.49,0.75-0.68,1.29l-3.96,11.58h-0.41l-3.04-8.56
	l-3.02,8.56H6.8L2.86,3.62C2.73,3.23,2.6,2.86,2.48,2.52C2.35,2.19,2.16,1.91,1.92,1.71C1.68,1.5,1.31,1.39,0.82,1.39V1.05h4.93
	v0.35c-0.27,0-0.55,0.04-0.84,0.12C4.62,1.6,4.48,1.83,4.48,2.19c0,0.2,0.05,0.47,0.16,0.8c0.11,0.33,0.2,0.59,0.26,0.78l2.62,7.53
	l2.23-6.39C9.59,4.35,9.41,3.8,9.21,3.26C9,2.72,8.74,2.28,8.42,1.92C8.1,1.57,7.69,1.39,7.18,1.39V1.05h5.22v0.35
	c-0.22,0-0.44,0.01-0.65,0.04c-0.22,0.03-0.4,0.1-0.55,0.22c-0.15,0.12-0.22,0.33-0.22,0.62c0,0.27,0.05,0.57,0.15,0.9
	c0.1,0.33,0.19,0.61,0.28,0.84l2.57,7.29l2.55-7.4c0.07-0.2,0.16-0.47,0.25-0.8c0.09-0.33,0.14-0.6,0.14-0.8
	c0-0.39-0.16-0.63-0.48-0.74c-0.32-0.11-0.64-0.16-0.95-0.16V1.05H19.47z"/>
<path class="st0" d="M27.06,9.73c0,0.87-0.18,1.69-0.54,2.45c-0.36,0.76-0.87,1.37-1.53,1.84c-0.66,0.47-1.45,0.7-2.38,0.7
	c-0.87,0-1.62-0.23-2.27-0.68c-0.65-0.45-1.15-1.04-1.5-1.76c-0.35-0.72-0.53-1.49-0.53-2.3c0-0.84,0.18-1.64,0.54-2.38
	c0.36-0.74,0.87-1.34,1.53-1.8c0.66-0.46,1.43-0.69,2.33-0.69c0.88,0,1.65,0.21,2.3,0.62c0.65,0.41,1.16,0.97,1.52,1.67
	C26.88,8.1,27.06,8.88,27.06,9.73z M25.22,10.5c0-0.44-0.04-0.92-0.13-1.46s-0.24-1.06-0.45-1.56c-0.22-0.5-0.5-0.91-0.87-1.24
	c-0.36-0.32-0.82-0.49-1.39-0.49c-0.6,0-1.05,0.19-1.37,0.56c-0.32,0.37-0.54,0.82-0.65,1.35c-0.12,0.53-0.18,1.03-0.18,1.51
	c0,0.43,0.05,0.92,0.14,1.46c0.09,0.55,0.24,1.07,0.46,1.58c0.21,0.51,0.5,0.93,0.87,1.27c0.36,0.33,0.82,0.5,1.37,0.5
	c0.63,0,1.11-0.19,1.42-0.56c0.32-0.37,0.52-0.83,0.63-1.37S25.22,11,25.22,10.5z"/>
<path class="st0" d="M35.63,6.22c0,0.24-0.09,0.45-0.27,0.64c-0.18,0.18-0.39,0.28-0.64,0.28c-0.22,0-0.4-0.06-0.56-0.17
	c-0.15-0.12-0.29-0.23-0.42-0.35c-0.13-0.12-0.27-0.17-0.42-0.17c-0.19,0-0.4,0.15-0.64,0.44c-0.24,0.29-0.46,0.65-0.67,1.07v4.37
	c0,0.57,0.11,1,0.33,1.29s0.64,0.43,1.25,0.43v0.38h-4.67v-0.38c0.45,0,0.78-0.05,0.98-0.15c0.2-0.1,0.33-0.27,0.38-0.51
	c0.05-0.24,0.08-0.57,0.08-0.99v-3.9c0-0.63-0.04-1.12-0.12-1.49c-0.08-0.37-0.31-0.55-0.7-0.55c-0.18,0-0.39,0.04-0.61,0.13
	l-0.11-0.35l2.79-1.1h0.4v2.04c0.15-0.28,0.34-0.57,0.57-0.89c0.23-0.32,0.49-0.59,0.79-0.81c0.3-0.23,0.63-0.34,0.98-0.34
	c0.32,0,0.61,0.1,0.88,0.29C35.5,5.6,35.63,5.87,35.63,6.22z"/>
<path class="st0" d="M46.85,13.59l-2.74,1.13h-0.43v-1.33c-0.36,0.38-0.77,0.69-1.21,0.95c-0.44,0.25-0.92,0.38-1.44,0.38
	c-0.79,0-1.45-0.22-2.01-0.67c-0.55-0.45-0.97-1.01-1.27-1.69c-0.29-0.68-0.44-1.37-0.44-2.07c0-0.63,0.1-1.24,0.3-1.85
	c0.2-0.61,0.49-1.17,0.87-1.67c0.38-0.5,0.84-0.9,1.38-1.2c0.54-0.3,1.16-0.45,1.84-0.45c0.36,0,0.71,0.06,1.05,0.17
	c0.34,0.12,0.64,0.31,0.91,0.58V2.94c0-0.39-0.05-0.69-0.16-0.92c-0.11-0.23-0.28-0.34-0.54-0.34c-0.12,0-0.23,0.01-0.34,0.04
	c-0.11,0.03-0.23,0.06-0.35,0.09l-0.13-0.34L44.9,0.4h0.43v11.25c0,0.51,0.04,0.93,0.12,1.25c0.08,0.33,0.28,0.49,0.6,0.49
	c0.11,0,0.22-0.02,0.34-0.05c0.12-0.03,0.24-0.07,0.35-0.1L46.85,13.59z M43.69,12.71V8.05c0-0.38-0.09-0.75-0.27-1.11
	c-0.18-0.36-0.43-0.66-0.74-0.89C42.36,5.82,42,5.7,41.6,5.7c-0.47,0-0.86,0.12-1.17,0.37c-0.32,0.25-0.57,0.57-0.75,0.95
	c-0.18,0.39-0.32,0.8-0.4,1.24c-0.08,0.44-0.12,0.84-0.12,1.22c0,0.41,0.05,0.86,0.14,1.34c0.09,0.48,0.25,0.93,0.47,1.35
	c0.22,0.42,0.5,0.77,0.86,1.04c0.35,0.27,0.78,0.4,1.29,0.4c0.36,0,0.69-0.09,0.99-0.27C43.2,13.18,43.47,12.96,43.69,12.71z"/>
<path class="st0" d="M51.92,3.72c0,0.39-0.13,0.71-0.4,0.98c-0.26,0.27-0.59,0.4-0.96,0.4c-0.39,0-0.71-0.13-0.98-0.4
	s-0.4-0.6-0.4-0.98c0-0.4,0.13-0.73,0.4-1c0.27-0.27,0.6-0.4,0.98-0.4c0.38,0,0.7,0.13,0.96,0.4C51.78,2.98,51.92,3.32,51.92,3.72z
	 M51.92,11.2c0,0.37-0.13,0.69-0.4,0.95c-0.26,0.27-0.59,0.4-0.96,0.4c-0.39,0-0.71-0.13-0.98-0.4c-0.27-0.26-0.4-0.58-0.4-0.95
	c0-0.39,0.13-0.71,0.4-0.99c0.27-0.27,0.6-0.41,0.98-0.41c0.38,0,0.7,0.14,0.96,0.41C51.78,10.49,51.92,10.81,51.92,11.2z"/>
<path class="st0" d="M65.82,10.76l-1.15,3.65H54.28v-0.38c0.63,0,1.11-0.1,1.44-0.29c0.34-0.2,0.51-0.65,0.51-1.36V3.09
	c0-0.71-0.17-1.16-0.51-1.36c-0.34-0.2-0.82-0.31-1.44-0.31V1.05h5.81v0.37c-0.64,0-1.13,0.1-1.47,0.31s-0.51,0.66-0.51,1.36v8.8
	c0,0.66,0.12,1.11,0.35,1.33c0.23,0.23,0.68,0.34,1.34,0.34h1.34c0.86,0,1.54-0.07,2.05-0.22c0.51-0.15,0.93-0.42,1.27-0.83
	c0.34-0.41,0.68-1.01,1.02-1.8L65.82,10.76z"/>
<path class="st0" d="M74.32,10.91l0.29,0.22c-0.09,0.62-0.3,1.2-0.63,1.75c-0.33,0.55-0.76,0.99-1.29,1.34
	c-0.52,0.34-1.12,0.51-1.78,0.51c-0.87,0-1.59-0.23-2.18-0.69c-0.59-0.46-1.03-1.06-1.33-1.78c-0.3-0.72-0.45-1.48-0.45-2.26
	c0-0.87,0.15-1.67,0.46-2.41c0.31-0.74,0.77-1.34,1.39-1.79c0.62-0.45,1.4-0.68,2.35-0.68c1.09,0,1.94,0.35,2.55,1.04
	c0.61,0.69,0.91,1.57,0.91,2.63h-6.24c0,0.65,0.12,1.3,0.35,1.97c0.23,0.66,0.59,1.22,1.08,1.66c0.49,0.44,1.11,0.67,1.87,0.67
	c0.69,0,1.25-0.21,1.66-0.63C73.75,12.04,74.08,11.52,74.32,10.91z M68.37,8.22h4.18c0-0.4-0.07-0.78-0.2-1.15
	C72.21,6.7,72,6.41,71.72,6.17c-0.29-0.23-0.66-0.35-1.12-0.35c-0.68,0-1.2,0.25-1.58,0.74S68.42,7.61,68.37,8.22z"/>
<path class="st0" d="M85.16,12.54v0.57c-0.25,0.33-0.55,0.67-0.92,1c-0.36,0.33-0.77,0.5-1.23,0.5c-0.42,0-0.7-0.16-0.84-0.48
	c-0.14-0.32-0.21-0.66-0.21-1.01c-0.44,0.35-0.88,0.69-1.33,1.01c-0.45,0.32-0.97,0.48-1.56,0.48c-0.68,0-1.21-0.22-1.59-0.67
	c-0.37-0.45-0.56-1-0.56-1.66c0-0.55,0.18-1.03,0.53-1.44c0.36-0.42,0.81-0.78,1.35-1.09c0.54-0.31,1.1-0.56,1.67-0.77
	c0.57-0.21,1.07-0.39,1.49-0.52V8.07c0-0.41-0.04-0.79-0.12-1.15c-0.08-0.36-0.24-0.65-0.48-0.88s-0.6-0.34-1.09-0.34
	c-0.6,0-0.97,0.16-1.11,0.47c-0.15,0.32-0.22,0.72-0.22,1.22c0,0.29-0.06,0.52-0.17,0.69s-0.34,0.25-0.67,0.25
	c-0.31,0-0.52-0.09-0.64-0.26s-0.19-0.4-0.19-0.68c0-0.55,0.18-0.99,0.55-1.32c0.36-0.33,0.8-0.58,1.31-0.73
	c0.51-0.15,0.99-0.23,1.44-0.23c1.14,0,1.93,0.23,2.37,0.7c0.44,0.47,0.65,1.26,0.65,2.39v3.08c0,0.25,0,0.54,0.01,0.86
	c0,0.32,0.02,0.56,0.05,0.72c0.01,0.12,0.05,0.24,0.12,0.34s0.17,0.15,0.31,0.15c0.1,0,0.23-0.05,0.37-0.16s0.29-0.23,0.42-0.35
	C85,12.7,85.1,12.61,85.16,12.54z M81.96,12.45V9c-0.44,0.17-0.93,0.38-1.46,0.63c-0.53,0.25-0.98,0.56-1.36,0.92
	c-0.38,0.36-0.57,0.78-0.57,1.26c0,0.39,0.12,0.76,0.37,1.11c0.25,0.35,0.59,0.52,1.04,0.52c0.34,0,0.69-0.11,1.04-0.33
	C81.38,12.89,81.69,12.67,81.96,12.45z"/>
<path class="st0" d="M93.06,6.22c0,0.24-0.09,0.45-0.27,0.64c-0.18,0.18-0.39,0.28-0.64,0.28c-0.22,0-0.4-0.06-0.56-0.17
	c-0.15-0.12-0.29-0.23-0.42-0.35c-0.13-0.12-0.27-0.17-0.42-0.17c-0.19,0-0.4,0.15-0.64,0.44c-0.24,0.29-0.46,0.65-0.67,1.07v4.37
	c0,0.57,0.11,1,0.33,1.29s0.64,0.43,1.25,0.43v0.38h-4.67v-0.38c0.45,0,0.78-0.05,0.98-0.15c0.2-0.1,0.33-0.27,0.38-0.51
	c0.05-0.24,0.08-0.57,0.08-0.99v-3.9c0-0.63-0.04-1.12-0.12-1.49c-0.08-0.37-0.31-0.55-0.7-0.55c-0.18,0-0.39,0.04-0.61,0.13
	l-0.11-0.35l2.79-1.1h0.4v2.04c0.15-0.28,0.34-0.57,0.57-0.89c0.23-0.32,0.49-0.59,0.79-0.81c0.3-0.23,0.63-0.34,0.98-0.34
	c0.32,0,0.61,0.1,0.88,0.29C92.93,5.6,93.06,5.87,93.06,6.22z"/>
<path class="st0" d="M104.17,14.42h-4.53v-0.38c0.46,0,0.79-0.05,1-0.14c0.21-0.09,0.34-0.26,0.39-0.51
	c0.05-0.24,0.08-0.58,0.08-1.01v-3.7c0-0.34-0.03-0.69-0.08-1.06c-0.05-0.36-0.18-0.67-0.38-0.92c-0.2-0.25-0.52-0.38-0.97-0.38
	c-0.47,0-0.91,0.13-1.3,0.4C98.01,7,97.66,7.29,97.37,7.61v4.77c0,0.42,0.03,0.75,0.08,0.99c0.06,0.24,0.19,0.41,0.39,0.51
	c0.21,0.1,0.54,0.15,0.99,0.15v0.38h-4.49v-0.38c0.44,0,0.76-0.06,0.95-0.17s0.31-0.3,0.35-0.55c0.05-0.25,0.07-0.56,0.07-0.94V8.21
	c0-0.45-0.04-0.86-0.12-1.24c-0.08-0.37-0.27-0.56-0.58-0.56c-0.11,0-0.22,0.02-0.34,0.05c-0.12,0.03-0.23,0.07-0.34,0.1L94.2,6.22
	l2.76-1.1h0.4v1.91c0.36-0.45,0.8-0.88,1.32-1.29c0.52-0.41,1.08-0.62,1.7-0.62c0.65,0,1.15,0.17,1.49,0.51
	c0.34,0.34,0.57,0.77,0.69,1.29c0.12,0.52,0.18,1.05,0.18,1.6v3.86c0,0.57,0.07,0.99,0.22,1.26c0.15,0.26,0.55,0.4,1.2,0.4V14.42z"
	/>
</svg>
